<svg xmlns="http://www.w3.org/2000/svg" width="1000" height="936" viewBox="0 0 1000 936">
    <path d="M548.573,262.009v-9.383l9.393-.722q2.77-14.914,5.54-29.834l-76.348,1.2c-8.627-1.313-13.728-5.956-21.436-6.977L447.177,218.7c-44.194-6.339-93.091-1.225-136.318-7.94-53.984-8.385-109.577-17.913-165.221-25.743-11.342-1.6-27.122,1.209-36.608,2.646l-35.4-.722-32.033-5.052-20.231-9.624c-3.967-.781-4.591,2.245-6.744,3.128-6.955,2.851-8.888,1.1-10.6,8.9H-2V0C35.856,8.54,73.484,16.936,105.658,30.8l62.62,30.8,28.179,15.639,16.377,2.406c30.38,7.888,63.994,13.884,98.265,18.526l42.148-.481c32.6,5.1,69.534,8.92,103.323,13.955,37.529,5.591,66.726,9.519,107.417,4.812,10.8-1.25,18.733,4.435,27.7,2.887,5.507-.952,30.593-32.682,35.886-27.669,6.928-8.321,39.8-31.662,52.263-33.443,7.424-1.061,10.935,3.4,15.414,3.609l7.948-1.925c9.091-1.026,14.727,4.651,18.064,9.624,12.649-9.96,27.43-19.769,46.242-23.578l7.707,0.241,9.152-4.09c5.973-.947,9.648,2.907,14.21,3.368l19.75-4.571c20.892-2.463,50.5,16.31,39.257,35.127l-1.445.481-6.021-10.586c-5.7-7.491-23.062-11.77-32.032-4.812q0.12,5.052.241,10.105c-1.907,7.6-11.989,18.5-18.786,21.173l-13.006,2.887-15.655,6.256-8.67.24-27.939,18.045V120.3c24.967-2.042,103.415-20.6,118.5-.962,9.6-3.78,60.361-11.034,57.081,6.736-4.481,8.37-36.976,9.989-46.483,15.88q-2.168,4.089-4.335,8.18c-5.248,8.121-13.38,13.957-23.6,17.082-15.8,4.83-35.962,3.974-53.95,6.737l-41.184,8.662-31.551,5.533c0.08,0.08.16,0.161,0.241,0.241,9.356,5.7,19.594,13.18,32.032,15.4l29.142,1.444c8.01,0.755,16.051-3.407,24.326-.963,6.054,1.788,6.854,7.727,11.56,9.865,5.882,2.671,22.137,2.654,24.085,8.9-6.754,8.832-16.723,3.485-29.383,6.5l-9.152,5.534H805.8q1.083,7.938,2.167,15.879l6.262,0.962q12.764,158.538,25.53,317.106c1.693,14.821,9.674,100.182,3.372,104.9-8.034,6.015-61.639,3.786-78.034,5.775l-186.415,16.12c-9.641.9-20.8-.612-31.069,0.481-12.665,1.347-90.04,4.807-91.281,3.368l-0.722-.481c-3.567-5.278-1.563-97.082,0-112.118q3.612-162.145,7.225-324.324C491.734,262.746,520.9,262.454,548.573,262.009Zm52.986-48.6q-2.408,17.922-4.817,35.849l82.611-5.774q-0.6-8.541-1.2-17.083ZM714.034,226.4l-3.371.722q0.721,6.737,1.445,13.473l72.976-4.812-21.917-5.052-15.173-.241C736.615,228.992,727.148,226.444,714.034,226.4Z"/>
</svg>
