<?xml version="1.0" standalone="no"?>
<!DOCTYPE svg PUBLIC "-//W3C//DTD SVG 20010904//EN"
 "http://www.w3.org/TR/2001/REC-SVG-20010904/DTD/svg10.dtd">
<svg version="1.0" xmlns="http://www.w3.org/2000/svg"
 width="880.000000pt" height="880.000000pt" viewBox="0 0 880.000000 880.000000"
 preserveAspectRatio="xMidYMid meet">
<metadata>
Created by potrace 1.11, written by Peter Selinger 2001-2013
</metadata>
<g transform="translate(0.000000,880.000000) scale(0.100000,-0.100000)"
fill="#000000" stroke="none">
<path d="M1955 6533 c-76 -9 -290 -47 -380 -68 -359 -85 -681 -267 -950 -539
-350 -352 -562 -784 -613 -1246 -14 -132 -6 -496 13 -585 3 -11 7 -33 10 -50
34 -206 88 -378 180 -572 198 -417 559 -777 980 -977 89 -42 231 -98 297 -117
24 -7 48 -14 53 -15 66 -19 137 -36 140 -33 2 3 15 72 30 154 14 83 32 186 40
230 8 44 16 91 19 105 2 14 7 41 10 60 3 19 8 46 10 60 2 14 7 36 10 50 3 14
8 43 11 65 3 22 7 47 10 55 14 52 21 137 16 222 0 15 -14 42 -31 61 -27 31
-62 129 -85 237 -4 19 -20 60 -35 90 -38 77 -68 225 -68 340 0 52 -5 108 -11
124 -8 19 -8 39 -2 63 9 31 6 43 -20 91 -24 45 -28 64 -25 103 5 52 46 144 74
165 17 13 96 30 120 26 15 -3 16 14 1 24 -19 11 -49 87 -49 124 0 45 44 100
103 129 63 31 91 27 140 -17 47 -43 107 -86 107 -78 0 3 -13 38 -29 78 -54
138 -302 896 -305 934 -5 53 10 80 56 103 49 24 70 18 139 -39 42 -34 60 -57
76 -100 12 -30 56 -147 98 -260 42 -113 81 -214 85 -225 5 -11 23 -58 40 -105
17 -47 35 -94 40 -105 12 -31 35 -89 36 -95 0 -3 6 -18 13 -35 6 -16 16 -42
22 -57 8 -20 19 -28 35 -28 13 0 24 1 25 3 0 1 3 58 6 127 8 166 8 331 -1 585
-10 275 -8 322 13 370 23 52 42 67 86 67 45 0 63 -15 90 -77 34 -76 44 -136
50 -300 4 -82 8 -179 10 -215 12 -188 15 -247 20 -375 11 -288 15 -381 19
-405 2 -14 7 -47 10 -75 13 -106 48 -249 91 -370 35 -100 29 -193 -25 -400
-23 -88 -43 -169 -46 -180 -2 -11 -6 -29 -8 -40 -2 -11 -20 -83 -41 -160 l-36
-140 -6 -320 c-9 -490 -9 -484 11 -563 l19 -74 30 6 c65 13 238 81 362 141
147 72 296 169 428 277 111 91 289 275 350 361 148 213 274 473 341 705 28 97
33 123 51 247 4 22 8 47 10 55 9 33 19 202 19 315 0 132 -7 226 -23 295 -5 25
-12 61 -15 80 -50 310 -227 682 -454 950 -225 267 -520 492 -816 622 -121 53
-265 98 -314 98 -26 0 -78 6 -117 14 -38 8 -88 17 -110 21 -45 7 -394 14 -440
8z"/>
<path d="M6460 6519 c-98 -11 -164 -21 -267 -43 -61 -13 -188 -52 -273 -84
-280 -106 -520 -262 -746 -487 -129 -127 -198 -211 -286 -344 -176 -266 -297
-583 -333 -868 -4 -26 -9 -59 -11 -73 -3 -14 -7 -99 -9 -190 -8 -392 92 -753
313 -1130 240 -410 550 -683 968 -857 109 -46 419 -135 514 -148 24 -4 47 -8
50 -10 17 -10 173 -20 315 -20 181 1 238 6 380 36 28 6 61 13 75 15 47 9 195
57 280 91 143 58 312 146 299 157 -3 3 -408 303 -474 352 -11 8 -99 73 -195
145 -293 219 -279 210 -351 213 -68 4 -97 10 -254 58 -106 32 -191 71 -345
160 -52 30 -112 58 -132 62 -34 6 -89 53 -100 86 -2 6 -17 12 -33 14 -53 4
-75 25 -112 103 -41 85 -45 134 -13 168 11 12 20 24 20 27 0 3 -17 13 -38 21
-77 31 -132 118 -116 184 13 56 45 104 78 119 l32 16 -27 27 c-33 33 -49 89
-45 154 4 53 24 89 64 114 15 10 38 27 51 39 l23 22 -22 22 c-29 29 -48 76
-42 106 7 37 77 110 124 129 83 33 191 14 336 -59 138 -68 172 -77 340 -81
111 -2 113 -2 131 24 17 24 23 43 35 108 3 11 -4 54 -13 95 -50 205 -55 288
-21 360 24 51 140 168 167 168 29 0 64 -64 64 -118 1 -94 86 -396 168 -602 51
-127 98 -267 134 -400 79 -291 110 -378 149 -417 76 -74 445 -265 923 -475
126 -56 192 -86 248 -114 27 -13 52 -24 56 -24 22 0 122 273 181 495 64 237
79 360 75 600 -6 332 -80 611 -238 900 -21 39 -41 78 -44 88 -3 9 -9 17 -14
17 -5 0 -9 5 -9 11 0 17 -125 195 -200 284 -351 419 -807 662 -1410 751 -57 9
-350 10 -420 3z"/>
</g>
</svg>
