<svg xmlns="http://www.w3.org/2000/svg" viewBox="0 0 23.3 29.8"><path fill="#fff" d="M12.2 19.1c-.7 0-1.3-.1-1.9-.4-.8-.3-1.6-.7-2.4-1.2-.4 0-.7-.2-.8-.6h-.2c-.2-.1-.4-.3-.4-.5-.4-.6-.3-1 .1-1.2-.6-.1-1-.5-1-1.1 0-.3.2-.5.4-.7l.3-.1c-.3-.2-.5-.6-.4-1 0-.3.2-.6.4-.7l.4-.3c-.3-.2-.5-.6-.3-.9l.3-.3c.3-.4 1.1-.4 2.3.3.5.3 1 .4 1.5.4h.8c.2-.3.3-.6.3-1-.1-.3-.2-.7-.2-1-.3-.8 0-1.6.7-2.1.2-.3.3-.3.4-.1l.2.4v.5l.5 2.1c.4.9.7 1.6.9 2.2.3 1.1.6 2.2 1 3.2.1.4 1.6 1.2 4.2 2.4l2 .9c3.6-5.3 2.2-12.6-3.1-16.2C12.9-1.6 5.6-.2 2 5.1c-2.8 4.1-2.7 9.5.3 13.4l.2.2c.1.1.2.3.3.4l8.3 10.6 6.2-7-5.1-3.6z"/></svg>