<svg xmlns="http://www.w3.org/2000/svg" width="1000" height="780" viewBox="0 0 1000 780">
    <path d="M777.115-5H897.606L898-3.815c-2.2,7.845-12.007,12.829-16.368,19.153-6.784,9.837-9.621,21.938-16.762,31q-1.38,4.344-2.761,8.688c-4.85,8.115-14.58,12.132-20.311,19.35-5.988,7.54-8.3,27.552-13.607,37.121-3.708,6.691-10.905,15.9-16.762,20.733l-10.649,5.331L789.342,157.7q-12.817,15.6-25.636,31.2c-2.621,4.569-3.219,11.523-6.114,15.8L743,220.491c-5.617,4.187-15.06,7.2-17.946,13.822q0.987,6.318,1.972,12.637l-3.549,2.961-0.2.4-3.549,8.886-5.325,6.121-0.591.592c-0.889,3.493,2.41,11.537.986,17.376-1.761,7.215-7.684,11.087-9.269,17.376l0.789,8.688-1.578,3.159c-1.968,14.1,7.294,41.811-.2,54.5-3.266.5-7.723,1.523-9.86-.592-3.364-3.33-3.191-27.1-10.846-24.09-6.629,2.61-3.316,13.074-5.719,20.338l-3.944,6.319c-2.818,7.058-6.258,26.089-16.565,22.9-1.729-2.068-2.862-6.323-3.352-9.478-0.7-4.478,2.187-5.774,2.761-9.083,0.687-3.969-1.1-6.338-1.578-9.082-1.358-7.827-1.7-18.177-12.621-14.217-2.476,4.2-8.888,14.359-10.254,17.771-1.776,4.433-4.2,40.1-14.4,28.63l-1.38-7.305c-1.966-8.039-3.824-21.188-1.972-30.8q1.182-4.935,2.366-9.873c-0.63-3.273-3.086-7.6-6.311-8.293-10.874-2.341-37.285,37.731-48.511,39.886l-4.339-2.764c-0.5-4.393,3.771-5.314,4.733-8.688v-7.109L568.871,352c5.888-11.347,13.228-20.183,19.917-30.408V311.319c1.4-4.818,8.1-26.252,11.832-27.248a9.84,9.84,0,0,1,.986-7.108l15.776-14.415q3.155-6.317,6.311-12.637l0.591-.789,9.466-1.58c3.567-8.308,11.531-5.444,16.959-10.86-0.632-4.963-3.48-10.09,1.972-12.242-2.109-7.239,23.862-24.272,25.242-37.121,1.5-13.992,9.013-21.2,16.368-30.8l11.24-21.719c10.553-25.831,17.325-52.5,29.778-76.612,9.414-18.227,22.415-35.333,34.116-52.128l8.676-8.49Q777.609-3.716,777.115-5ZM-4,591.7c19.5-.079,45.762-2.08,63.1.395,8.121,1.159,14.775-2.166,21.692.592,3.929,1.567,6.055,6.6,9.071,9.281l11.832-3.949,23.664-1.975c5.1-.748,6.91,2.472,9.86,2.37,5.772-.2,9.15-6.426,17.354-6.121l20.115,3.356c3.885-.812,5.35-5.448,11.043-4.344l9.466,2.765c6.78-1.374,18.554-10.644,25.636-12.242l10.649-.4c9.078-2.6,19.344-7.868,28.791-10.663,15.895-4.7,30.575-6.4,45.356-12.242,4.726-1.867,4.423-11.824,8.677-14.809l5.719-1.579c7.292-5.446,11.257-13.688,21.3-16.784l11.24-3.159,7.494-.2c8.51-4.192,16.241-16.009,26.031-14.414-0.087-10.214,9.789-10.042,13.212-16.388q1.283-9.378,2.564-18.758c2.736-8.111,19.664-53.14,30.369-49.166,9.824,3.647-10.874,47.3-4.536,55.089,9.11,11.2,12.614-9.578,15.382-11.057,3.769-2.014,6.94,2.086,9.86,2.764,5.906-3.571,7.345-10.165,12.424-14.216,5.594-4.463,12.218-5.438,18.931-9.083,8.555-4.646,27.294-24.653,40.229-16.586,1.122,6.672-8.275,11.993-11.24,16.191q0.1,0.592.2,1.185c1.986,1.066,4.578.221,6.705,0.592,6.76,9.238,1.813,20.714-.592,29.026,10.617,4.5,5.37,15.932,4.141,24.089q0.493,5.626.986,11.255l-5.916,5.923q0.69,7.01,1.381,14.019l-5.916.988q-1.38-8.292-2.761-16.586l-2.366-.4-0.395.4c0.649,4.628-.064,19.483-2.366,21.522h-2.761l-1.381-.987-0.591-3.357q0.887-9.18,1.775-18.363c-1.493-3.992-6.808-4.944-5.719-10.86v-0.592l1.38-2.567,0.2-.2q-0.1-.494-0.2-0.987a7.161,7.161,0,0,0-4.93-2.962l-0.986.988q0.494,3.653.986,7.305c-1.031,4.228-6.727,7.6-8.282,12.242-3.075,9.174-3.383,16.685-5.522,25.669l-7.3,3.554-4.339,4.739c-7.871,2.7-17.619,2-23.861,5.726l-11.635,15.007c-4.046-.095-6.1-1.318-8.677-2.37l-0.394.2c-2.121,8.035-16.124,8-22.284,11.847l-0.4.395-3.352,5.923-5.916,3.949-4.141,10.071L347.61,651.925c-9.769,8.446-37.661,15.881-51.075,21.72l-35.891,15.4q-17.351,8.688-34.707,17.376l-30.369,6.516-18.143,5.529-49.3,2.369-38.257-1.579-15.776,7.5c-21.371,5.479-38.743,9.153-61.921,13.822-5.677,1.143-9.632,3.87-16.17,3.356V591.7ZM777.115-5H897.606L898-3.815c-2.2,7.845-12.007,12.829-16.368,19.153-6.784,9.837-9.621,21.938-16.762,31q-1.38,4.344-2.761,8.688c-4.85,8.115-14.58,12.132-20.311,19.35-5.988,7.54-8.3,27.552-13.607,37.121-3.708,6.691-10.905,15.9-16.762,20.733l-10.649,5.331L789.342,157.7q-12.817,15.6-25.636,31.2c-2.621,4.569-3.219,11.523-6.114,15.8L743,220.491c-5.617,4.187-15.06,7.2-17.946,13.822q0.987,6.318,1.972,12.637l-3.549,2.961-0.2.4-3.549,8.886-5.325,6.121-0.591.592c-0.889,3.493,2.41,11.537.986,17.376-1.761,7.215-7.684,11.087-9.269,17.376l0.789,8.688-1.578,3.159c-1.968,14.1,7.294,41.811-.2,54.5-3.266.5-7.723,1.523-9.86-.592-3.364-3.33-3.191-27.1-10.846-24.09-6.629,2.61-3.316,13.074-5.719,20.338l-3.944,6.319c-2.818,7.058-6.258,26.089-16.565,22.9-1.729-2.068-2.862-6.323-3.352-9.478-0.7-4.478,2.187-5.774,2.761-9.083,0.687-3.969-1.1-6.338-1.578-9.082-1.358-7.827-1.7-18.177-12.621-14.217-2.476,4.2-8.888,14.359-10.254,17.771-1.776,4.433-4.2,40.1-14.4,28.63l-1.38-7.305c-1.966-8.039-3.824-21.188-1.972-30.8q1.182-4.935,2.366-9.873c-0.63-3.273-3.086-7.6-6.311-8.293-10.874-2.341-37.285,37.731-48.511,39.886l-4.339-2.764c-0.5-4.393,3.771-5.314,4.733-8.688v-7.109L568.871,352c5.888-11.347,13.228-20.183,19.917-30.408V311.319c1.4-4.818,8.1-26.252,11.832-27.248a9.84,9.84,0,0,1,.986-7.108l15.776-14.415q3.155-6.317,6.311-12.637l0.591-.789,9.466-1.58c3.567-8.308,11.531-5.444,16.959-10.86-0.632-4.963-3.48-10.09,1.972-12.242-2.109-7.239,23.862-24.272,25.242-37.121,1.5-13.992,9.013-21.2,16.368-30.8l11.24-21.719c10.553-25.831,17.325-52.5,29.778-76.612,9.414-18.227,22.415-35.333,34.116-52.128l8.676-8.49Q777.609-3.716,777.115-5ZM-4,591.7c19.5-.079,45.762-2.08,63.1.395,8.121,1.159,14.775-2.166,21.692.592,3.929,1.567,6.055,6.6,9.071,9.281l11.832-3.949,23.664-1.975c5.1-.748,6.91,2.472,9.86,2.37,5.772-.2,9.15-6.426,17.354-6.121l20.115,3.356c3.885-.812,5.35-5.448,11.043-4.344l9.466,2.765c6.78-1.374,18.554-10.644,25.636-12.242l10.649-.4c9.078-2.6,19.344-7.868,28.791-10.663,15.895-4.7,30.575-6.4,45.356-12.242,4.726-1.867,4.423-11.824,8.677-14.809l5.719-1.579c7.292-5.446,11.257-13.688,21.3-16.784l11.24-3.159,7.494-.2c8.51-4.192,16.241-16.009,26.031-14.414-0.087-10.214,9.789-10.042,13.212-16.388q1.283-9.378,2.564-18.758c2.736-8.111,19.664-53.14,30.369-49.166,9.824,3.647-10.874,47.3-4.536,55.089,9.11,11.2,12.614-9.578,15.382-11.057,3.769-2.014,6.94,2.086,9.86,2.764,5.906-3.571,7.345-10.165,12.424-14.216,5.594-4.463,12.218-5.438,18.931-9.083,8.555-4.646,27.294-24.653,40.229-16.586,1.122,6.672-8.275,11.993-11.24,16.191q0.1,0.592.2,1.185c1.986,1.066,4.578.221,6.705,0.592,6.76,9.238,1.813,20.714-.592,29.026,10.617,4.5,5.37,15.932,4.141,24.089q0.493,5.626.986,11.255l-5.916,5.923q0.69,7.01,1.381,14.019l-5.916.988q-1.38-8.292-2.761-16.586l-2.366-.4-0.395.4c0.649,4.628-.064,19.483-2.366,21.522h-2.761l-1.381-.987-0.591-3.357q0.887-9.18,1.775-18.363c-1.493-3.992-6.808-4.944-5.719-10.86v-0.592l1.38-2.567,0.2-.2q-0.1-.494-0.2-0.987a7.161,7.161,0,0,0-4.93-2.962l-0.986.988q0.494,3.653.986,7.305c-1.031,4.228-6.727,7.6-8.282,12.242-3.075,9.174-3.383,16.685-5.522,25.669l-7.3,3.554-4.339,4.739c-7.871,2.7-17.619,2-23.861,5.726l-11.635,15.007c-4.046-.095-6.1-1.318-8.677-2.37l-0.394.2c-2.121,8.035-16.124,8-22.284,11.847l-0.4.395-3.352,5.923-5.916,3.949-4.141,10.071L347.61,651.925c-9.769,8.446-37.661,15.881-51.075,21.72l-35.891,15.4q-17.351,8.688-34.707,17.376l-30.369,6.516-18.143,5.529-49.3,2.369-38.257-1.579-15.776,7.5c-21.371,5.479-38.743,9.153-61.921,13.822-5.677,1.143-9.632,3.87-16.17,3.356V591.7ZM777.115-5H897.606L898-3.815c-2.2,7.845-12.007,12.829-16.368,19.153-6.784,9.837-9.621,21.938-16.762,31q-1.38,4.344-2.761,8.688c-4.85,8.115-14.58,12.132-20.311,19.35-5.988,7.54-8.3,27.552-13.607,37.121-3.708,6.691-10.905,15.9-16.762,20.733l-10.649,5.331L789.342,157.7q-12.817,15.6-25.636,31.2c-2.621,4.569-3.219,11.523-6.114,15.8L743,220.491c-5.617,4.187-15.06,7.2-17.946,13.822q0.987,6.318,1.972,12.637l-3.549,2.961-0.2.4-3.549,8.886-5.325,6.121-0.591.592c-0.889,3.493,2.41,11.537.986,17.376-1.761,7.215-7.684,11.087-9.269,17.376l0.789,8.688-1.578,3.159c-1.968,14.1,7.294,41.811-.2,54.5-3.266.5-7.723,1.523-9.86-.592-3.364-3.33-3.191-27.1-10.846-24.09-6.629,2.61-3.316,13.074-5.719,20.338l-3.944,6.319c-2.818,7.058-6.258,26.089-16.565,22.9-1.729-2.068-2.862-6.323-3.352-9.478-0.7-4.478,2.187-5.774,2.761-9.083,0.687-3.969-1.1-6.338-1.578-9.082-1.358-7.827-1.7-18.177-12.621-14.217-2.476,4.2-8.888,14.359-10.254,17.771-1.776,4.433-4.2,40.1-14.4,28.63l-1.38-7.305c-1.966-8.039-3.824-21.188-1.972-30.8q1.182-4.935,2.366-9.873c-0.63-3.273-3.086-7.6-6.311-8.293-10.874-2.341-37.285,37.731-48.511,39.886l-4.339-2.764c-0.5-4.393,3.771-5.314,4.733-8.688v-7.109L568.871,352c5.888-11.347,13.228-20.183,19.917-30.408V311.319c1.4-4.818,8.1-26.252,11.832-27.248a9.84,9.84,0,0,1,.986-7.108l15.776-14.415q3.155-6.317,6.311-12.637l0.591-.789,9.466-1.58c3.567-8.308,11.531-5.444,16.959-10.86-0.632-4.963-3.48-10.09,1.972-12.242-2.109-7.239,23.862-24.272,25.242-37.121,1.5-13.992,9.013-21.2,16.368-30.8l11.24-21.719c10.553-25.831,17.325-52.5,29.778-76.612,9.414-18.227,22.415-35.333,34.116-52.128l8.676-8.49Q777.609-3.716,777.115-5ZM-4,591.7c19.5-.079,45.762-2.08,63.1.395,8.121,1.159,14.775-2.166,21.692.592,3.929,1.567,6.055,6.6,9.071,9.281l11.832-3.949,23.664-1.975c5.1-.748,6.91,2.472,9.86,2.37,5.772-.2,9.15-6.426,17.354-6.121l20.115,3.356c3.885-.812,5.35-5.448,11.043-4.344l9.466,2.765c6.78-1.374,18.554-10.644,25.636-12.242l10.649-.4c9.078-2.6,19.344-7.868,28.791-10.663,15.895-4.7,30.575-6.4,45.356-12.242,4.726-1.867,4.423-11.824,8.677-14.809l5.719-1.579c7.292-5.446,11.257-13.688,21.3-16.784l11.24-3.159,7.494-.2c8.51-4.192,16.241-16.009,26.031-14.414-0.087-10.214,9.789-10.042,13.212-16.388q1.283-9.378,2.564-18.758c2.736-8.111,19.664-53.14,30.369-49.166,9.824,3.647-10.874,47.3-4.536,55.089,9.11,11.2,12.614-9.578,15.382-11.057,3.769-2.014,6.94,2.086,9.86,2.764,5.906-3.571,7.345-10.165,12.424-14.216,5.594-4.463,12.218-5.438,18.931-9.083,8.555-4.646,27.294-24.653,40.229-16.586,1.122,6.672-8.275,11.993-11.24,16.191q0.1,0.592.2,1.185c1.986,1.066,4.578.221,6.705,0.592,6.76,9.238,1.813,20.714-.592,29.026,10.617,4.5,5.37,15.932,4.141,24.089q0.493,5.626.986,11.255l-5.916,5.923q0.69,7.01,1.381,14.019l-5.916.988q-1.38-8.292-2.761-16.586l-2.366-.4-0.395.4c0.649,4.628-.064,19.483-2.366,21.522h-2.761l-1.381-.987-0.591-3.357q0.887-9.18,1.775-18.363c-1.493-3.992-6.808-4.944-5.719-10.86v-0.592l1.38-2.567,0.2-.2q-0.1-.494-0.2-0.987a7.161,7.161,0,0,0-4.93-2.962l-0.986.988q0.494,3.653.986,7.305c-1.031,4.228-6.727,7.6-8.282,12.242-3.075,9.174-3.383,16.685-5.522,25.669l-7.3,3.554-4.339,4.739c-7.871,2.7-17.619,2-23.861,5.726l-11.635,15.007c-4.046-.095-6.1-1.318-8.677-2.37l-0.394.2c-2.121,8.035-16.124,8-22.284,11.847l-0.4.395-3.352,5.923-5.916,3.949-4.141,10.071L347.61,651.925c-9.769,8.446-37.661,15.881-51.075,21.72l-35.891,15.4q-17.351,8.688-34.707,17.376l-30.369,6.516-18.143,5.529-49.3,2.369-38.257-1.579-15.776,7.5c-21.371,5.479-38.743,9.153-61.921,13.822-5.677,1.143-9.632,3.87-16.17,3.356V591.7Z"/>
</svg>
